<svg width="48" height="84" viewBox="0 0 48 84" fill="none" xmlns="http://www.w3.org/2000/svg">
<g filter="url(#filter0_f_7039_25162)">
<path d="M7.99535 54.3067L22.124 16.0762C22.7679 14.3339 25.2321 14.3339 25.876 16.0762L40.0047 54.3067C40.4873 55.6127 39.521 57 38.1287 57H9.87134C8.47898 57 7.51269 55.6127 7.99535 54.3067Z" fill="#DCF0F0"/>
</g>
<g filter="url(#filter1_f_7039_25162)">
<rect x="8" y="40" width="32" height="32" rx="16" fill="#DCF0F0"/>
</g>
<g filter="url(#filter2_f_7039_25162)">
<path d="M10.7138 69.5615C6.02751 64.8752 6.02751 57.2772 10.7138 52.5909L22.6616 40.6431C23.4426 39.862 24.709 39.862 25.49 40.6431L37.4378 52.5909C42.1241 57.2772 42.1241 64.8752 37.4378 69.5615L32.5611 74.4382C27.8748 79.1245 20.2768 79.1245 15.5905 74.4382L10.7138 69.5615Z" fill="url(#paint0_linear_7039_25162)"/>
</g>
<g opacity="0.65" filter="url(#filter3_f_7039_25162)">
<path d="M16.5383 47.6144C12.375 43.4512 12.375 36.7012 16.5383 32.5379L22.6623 26.4138C23.4434 25.6328 24.7097 25.6328 25.4908 26.4138L31.6148 32.5379C35.7781 36.7012 35.7781 43.4512 31.6148 47.6144C27.4515 51.7777 20.7015 51.7777 16.5383 47.6144Z" fill="url(#paint1_linear_7039_25162)"/>
</g>
<rect width="48" height="80" rx="24" fill="url(#paint2_linear_7039_25162)"/>
<defs>
<filter id="filter0_f_7039_25162" x="3.86914" y="10.7695" width="40.2617" height="50.2305" filterUnits="userSpaceOnUse" color-interpolation-filters="sRGB">
<feFlood flood-opacity="0" result="BackgroundImageFix"/>
<feBlend mode="normal" in="SourceGraphic" in2="BackgroundImageFix" result="shape"/>
<feGaussianBlur stdDeviation="2" result="effect1_foregroundBlur_7039_25162"/>
</filter>
<filter id="filter1_f_7039_25162" x="0" y="32" width="48" height="48" filterUnits="userSpaceOnUse" color-interpolation-filters="sRGB">
<feFlood flood-opacity="0" result="BackgroundImageFix"/>
<feBlend mode="normal" in="SourceGraphic" in2="BackgroundImageFix" result="shape"/>
<feGaussianBlur stdDeviation="4" result="effect1_foregroundBlur_7039_25162"/>
</filter>
<filter id="filter2_f_7039_25162" x="1.19922" y="34.0576" width="45.7529" height="49.8955" filterUnits="userSpaceOnUse" color-interpolation-filters="sRGB">
<feFlood flood-opacity="0" result="BackgroundImageFix"/>
<feBlend mode="normal" in="SourceGraphic" in2="BackgroundImageFix" result="shape"/>
<feGaussianBlur stdDeviation="3" result="effect1_foregroundBlur_7039_25162"/>
</filter>
<filter id="filter3_f_7039_25162" x="9.41602" y="21.8281" width="29.3213" height="32.9092" filterUnits="userSpaceOnUse" color-interpolation-filters="sRGB">
<feFlood flood-opacity="0" result="BackgroundImageFix"/>
<feBlend mode="normal" in="SourceGraphic" in2="BackgroundImageFix" result="shape"/>
<feGaussianBlur stdDeviation="2" result="effect1_foregroundBlur_7039_25162"/>
</filter>
<linearGradient id="paint0_linear_7039_25162" x1="23.9884" y1="39.2287" x2="23.9884" y2="68.4328" gradientUnits="userSpaceOnUse">
<stop stop-color="#38B3F9"/>
<stop offset="1" stop-color="#3890F8" stop-opacity="0"/>
</linearGradient>
<linearGradient id="paint1_linear_7039_25162" x1="24.0162" y1="24.9995" x2="24.0162" y2="45.1529" gradientUnits="userSpaceOnUse">
<stop stop-color="#77CAF9"/>
<stop offset="1" stop-color="white" stop-opacity="0"/>
</linearGradient>
<linearGradient id="paint2_linear_7039_25162" x1="24" y1="0" x2="24" y2="80" gradientUnits="userSpaceOnUse">
<stop stop-color="white" stop-opacity="0"/>
<stop offset="1" stop-color="white"/>
</linearGradient>
</defs>
</svg>
