<svg width="34" height="76" viewBox="0 0 34 76" fill="none" xmlns="http://www.w3.org/2000/svg">
<g filter="url(#filter0_f_6966_8963)">
<rect x="9" y="6" width="16" height="60" rx="8" fill="url(#paint0_linear_6966_8963)"/>
</g>
<g filter="url(#filter1_f_6966_8963)">
<path d="M13 16C13 13.7909 14.7909 12 17 12C19.2091 12 21 13.7909 21 16V48C21 50.2091 19.2091 52 17 52C14.7909 52 13 50.2091 13 48L13 16Z" fill="url(#paint1_linear_6966_8963)"/>
</g>
<rect x="7" y="2" width="20" height="74" rx="10" fill="url(#paint2_linear_6966_8963)" fill-opacity="0.1"/>
<defs>
<filter id="filter0_f_6966_8963" x="3" y="0" width="28" height="72" filterUnits="userSpaceOnUse" color-interpolation-filters="sRGB">
<feFlood flood-opacity="0" result="BackgroundImageFix"/>
<feBlend mode="normal" in="SourceGraphic" in2="BackgroundImageFix" result="shape"/>
<feGaussianBlur stdDeviation="3" result="effect1_foregroundBlur_6966_8963"/>
</filter>
<filter id="filter1_f_6966_8963" x="9" y="8" width="16" height="48" filterUnits="userSpaceOnUse" color-interpolation-filters="sRGB">
<feFlood flood-opacity="0" result="BackgroundImageFix"/>
<feBlend mode="normal" in="SourceGraphic" in2="BackgroundImageFix" result="shape"/>
<feGaussianBlur stdDeviation="2" result="effect1_foregroundBlur_6966_8963"/>
</filter>
<linearGradient id="paint0_linear_6966_8963" x1="17" y1="6" x2="17" y2="66" gradientUnits="userSpaceOnUse">
<stop stop-color="#FFFF00"/>
<stop offset="1" stop-color="#FFFF00" stop-opacity="0"/>
</linearGradient>
<linearGradient id="paint1_linear_6966_8963" x1="17" y1="12" x2="17" y2="52" gradientUnits="userSpaceOnUse">
<stop offset="0.510417" stop-color="white"/>
<stop offset="1" stop-color="white" stop-opacity="0"/>
</linearGradient>
<linearGradient id="paint2_linear_6966_8963" x1="17" y1="2" x2="17" y2="76" gradientUnits="userSpaceOnUse">
<stop stop-color="white" stop-opacity="0"/>
<stop offset="1" stop-color="white"/>
</linearGradient>
</defs>
</svg>
