<svg width="68" height="91" viewBox="0 0 68 91" fill="none" xmlns="http://www.w3.org/2000/svg">
<g filter="url(#filter0_f_7055_25219)">
<path d="M14.8134 55.4129L38.3554 22.1418C39.4283 20.6256 41.8085 21.2634 41.9795 23.1129L45.732 63.6975C45.8602 65.084 44.5678 66.1739 43.2228 65.8135L15.9284 58.5C14.5835 58.1396 14.0091 56.5495 14.8134 55.4129Z" fill="#DCF0F0"/>
</g>
<g filter="url(#filter1_f_7055_25219)">
<rect x="18.5215" y="41.5957" width="32" height="32" rx="16" transform="rotate(15 18.5215 41.5957)" fill="#DCF0F0"/>
</g>
<g filter="url(#filter2_f_7055_25219)">
<path d="M13.4922 70.8523C10.1785 65.1128 12.145 57.7737 17.8845 54.46L32.5175 46.0116C33.4741 45.4593 34.6973 45.7871 35.2495 46.7436L43.6979 61.3766C47.0116 67.1162 45.0451 74.4552 39.3056 77.769L33.3329 81.2173C27.5933 84.531 20.2543 82.5645 16.9406 76.825L13.4922 70.8523Z" fill="url(#paint0_linear_7055_25219)"/>
</g>
<g opacity="0.65" filter="url(#filter3_f_7055_25219)">
<path d="M24.7981 51.1602C21.8543 46.0612 23.6013 39.5412 28.7002 36.5974L36.2006 32.267C37.1572 31.7147 38.3804 32.0425 38.9327 32.9991L43.263 40.4995C46.2069 45.5984 44.4599 52.1184 39.361 55.0623C34.262 58.0062 27.742 56.2591 24.7981 51.1602Z" fill="url(#paint1_linear_7055_25219)"/>
</g>
<rect x="21.1465" y="0.887695" width="48" height="80" rx="24" transform="rotate(15 21.1465 0.887695)" fill="url(#paint2_linear_7055_25219)"/>
<defs>
<filter id="filter0_f_7055_25219" x="10.4443" y="17.2949" width="39.2969" height="52.5879" filterUnits="userSpaceOnUse" color-interpolation-filters="sRGB">
<feFlood flood-opacity="0" result="BackgroundImageFix"/>
<feBlend mode="normal" in="SourceGraphic" in2="BackgroundImageFix" result="shape"/>
<feGaussianBlur stdDeviation="2" result="effect1_foregroundBlur_7055_25219"/>
</filter>
<filter id="filter1_f_7055_25219" x="5.83105" y="37.1875" width="48.0078" height="48.0078" filterUnits="userSpaceOnUse" color-interpolation-filters="sRGB">
<feFlood flood-opacity="0" result="BackgroundImageFix"/>
<feBlend mode="normal" in="SourceGraphic" in2="BackgroundImageFix" result="shape"/>
<feGaussianBlur stdDeviation="4" result="effect1_foregroundBlur_7055_25219"/>
</filter>
<filter id="filter2_f_7055_25219" x="5.88281" y="39.7432" width="45.4248" height="49.084" filterUnits="userSpaceOnUse" color-interpolation-filters="sRGB">
<feFlood flood-opacity="0" result="BackgroundImageFix"/>
<feBlend mode="normal" in="SourceGraphic" in2="BackgroundImageFix" result="shape"/>
<feGaussianBlur stdDeviation="3" result="effect1_foregroundBlur_7055_25219"/>
</filter>
<filter id="filter3_f_7055_25219" x="19.3682" y="27.999" width="29.3252" height="32.4932" filterUnits="userSpaceOnUse" color-interpolation-filters="sRGB">
<feFlood flood-opacity="0" result="BackgroundImageFix"/>
<feBlend mode="normal" in="SourceGraphic" in2="BackgroundImageFix" result="shape"/>
<feGaussianBlur stdDeviation="2" result="effect1_foregroundBlur_7055_25219"/>
</filter>
<linearGradient id="paint0_linear_7055_25219" x1="34.1652" y1="44.9888" x2="26.6066" y2="73.1978" gradientUnits="userSpaceOnUse">
<stop stop-color="#38B3F9"/>
<stop offset="1" stop-color="#3890F8" stop-opacity="0"/>
</linearGradient>
<linearGradient id="paint1_linear_7055_25219" x1="37.8745" y1="31.2513" x2="32.6584" y2="50.718" gradientUnits="userSpaceOnUse">
<stop stop-color="#77CAF9"/>
<stop offset="1" stop-color="white" stop-opacity="0"/>
</linearGradient>
<linearGradient id="paint2_linear_7055_25219" x1="45.1465" y1="0.887695" x2="45.1465" y2="80.8877" gradientUnits="userSpaceOnUse">
<stop stop-color="white" stop-opacity="0"/>
<stop offset="1" stop-color="white"/>
</linearGradient>
</defs>
</svg>
